screens;
 
http://baypic.net/share.php?id=3174_50DCA519
 
http://baypic.net/share.php?id=7237_50DCA4E7

************************************************

Enjoy This Release

Brought to you by

XxX - Releasers Group	

*************************************************

Format                                   : MPEG-4
Format profile                           : Base Media
Codec ID                                 : isom
File size                                : 1.09 GiB
Duration                                 : 22mn 21s
Overall bit rate mode                    : Variable
Overall bit rate                         : 7 005 Kbps
Writing application                      : Lavf52.93.0

Video
ID                                       : 1
Format                                   : AVC
Format/Info                              : Advanced Video Codec
Format profile                           : High@L4.0
Format settings, CABAC                   : Yes
Format settings, ReFrames                : 4 frames
Codec ID                                 : avc1
Codec ID/Info                            : Advanced Video Coding
Duration                                 : 22mn 21s
Bit rate                                 : 6 800 Kbps
Width                                    : 1 920 pixels
Height                                   : 1 080 pixels
Display aspect ratio                     : 16:9
Frame rate mode                          : Constant
Frame rate                               : 29.970 fps
Color space                              : YUV
Chroma subsampling                       : 4:2:0
Bit depth                                : 8 bits
Scan type                                : Progressive
Bits/(Pixel*Frame)                       : 0.109
Stream size                              : 1.07 GiB (98%)
Writing library                          : x264 core 107

Audio
ID                                       : 2
Format                                   : AAC
Format/Info                              : Advanced Audio Codec
Format profile                           : LC
Codec ID                                 : 40
Duration                                 : 22mn 21s
Bit rate mode                            : Variable
Bit rate                                 : 152 Kbps
Channel(s)                               : 2 channels
Channel positions                        : Front: L R
Sampling rate                            : 44.1 KHz
Compression mode                         : Lossy
Delay relative to video                  : 67ms
Stream size                              : 24.3 MiB (2%)